<?xml version="1.0" encoding="UTF-8"?>
<svg width="1024" height="1024" xmlns="http://www.w3.org/2000/svg" xmlns:svg="http://www.w3.org/2000/svg">
 <title>True</title>
 <g>
  <title>Layer 1</title>
  <g id="icomoon-ignore"/>
  <path fill="#cd5c5c" id="svg_1" d="m512,22.827q99.84,0 191.147,38.827t157.44,104.96t104.96,157.44t38.827,191.147t-38.827,191.147t-104.96,157.44t-157.44,104.96t-191.147,38.827t-191.147,-38.827t-157.44,-104.96t-104.96,-157.44t-38.827,-191.147t38.827,-191.147t104.96,-157.44t157.44,-104.96t191.147,-38.827zm0,128q-98.987,0 -183.04,48.64t-132.693,132.693t-48.64,183.04t48.64,183.04t132.693,132.693t183.04,48.64t183.04,-48.64t132.693,-132.693t48.64,-183.04t-48.64,-183.04t-132.693,-132.693t-183.04,-48.64zm135.68,174.08l54.613,54.613q5.973,5.973 5.973,14.933t-5.973,14.933l-105.813,105.813l105.813,105.813q5.973,5.973 5.973,14.933t-5.973,14.933l-54.613,54.613q-5.973,5.973 -14.933,5.973t-14.933,-5.973l-105.813,-105.813l-105.813,105.813q-5.973,5.973 -14.933,5.973t-14.933,-5.973l-54.613,-54.613q-5.973,-5.973 -5.973,-14.933t5.973,-14.933l105.813,-105.813l-105.813,-105.813q-5.973,-5.973 -5.973,-14.933t5.973,-14.933l54.613,-54.613q5.973,-5.973 14.933,-5.973t14.933,5.973l105.813,105.813l105.813,-105.813q5.973,-5.973 14.933,-5.973t14.933,5.973z"/>
 </g>
</svg>