<!-- Generated by IcoMoon.io -->
<svg version="1.1" xmlns="http://www.w3.org/2000/svg" width="1024" height="1024" viewBox="0 0 1024 1024">
<title>True</title>
<g id="icomoon-ignore">
</g>
<path d="M512 22.827q99.84 0 191.147 38.827t157.44 104.96 104.96 157.44 38.827 191.147-38.827 191.147-104.96 157.44-157.44 104.96-191.147 38.827-191.147-38.827-157.44-104.96-104.96-157.44-38.827-191.147 38.827-191.147 104.96-157.44 157.44-104.96 191.147-38.827zM512 150.827q-98.987 0-183.040 48.64t-132.693 132.693-48.64 183.040 48.64 183.040 132.693 132.693 183.040 48.64 183.040-48.64 132.693-132.693 48.64-183.040-48.64-183.040-132.693-132.693-183.040-48.64zM647.68 324.907l54.613 54.613q5.973 5.973 5.973 14.933t-5.973 14.933l-105.813 105.813 105.813 105.813q5.973 5.973 5.973 14.933t-5.973 14.933l-54.613 54.613q-5.973 5.973-14.933 5.973t-14.933-5.973l-105.813-105.813-105.813 105.813q-5.973 5.973-14.933 5.973t-14.933-5.973l-54.613-54.613q-5.973-5.973-5.973-14.933t5.973-14.933l105.813-105.813-105.813-105.813q-5.973-5.973-5.973-14.933t5.973-14.933l54.613-54.613q5.973-5.973 14.933-5.973t14.933 5.973l105.813 105.813 105.813-105.813q5.973-5.973 14.933-5.973t14.933 5.973z"></path>
</svg>
